<svg xmlns="http://www.w3.org/2000/svg" xmlns:xlink="http://www.w3.org/1999/xlink" width="34" height="29" viewBox="0 0 34 29"><defs><path id="z1n9a" d="M1474.09 227.84h.05-22.75l7.15-7.1a1.84 1.84 0 0 0 0-2.62l-1.11-1.1a1.85 1.85 0 0 0-1.31-.54c-.5 0-.97.19-1.32.54l-12.26 12.15c-.35.35-.54.81-.54 1.3 0 .5.2.97.54 1.32l12.26 12.15c.35.35.82.54 1.32.54.5 0 .96-.2 1.31-.54l1.11-1.1a1.82 1.82 0 0 0 0-2.58l-7.23-7.15h22.8c1.03 0 1.89-.88 1.89-1.9v-1.55c0-1.02-.89-1.82-1.91-1.82z"/></defs><g><g transform="translate(-1442 -216)"><use xlink:href="#z1n9a"/></g></g></svg>