<svg xmlns="http://www.w3.org/2000/svg" xmlns:xlink="http://www.w3.org/1999/xlink" width="27" height="25" viewBox="0 0 27 25"><defs><path id="l4nya" d="M1395.97 119.6h2.37l-3.5-6.09c-.3-.49-.92-.66-1.4-.37-.5.29-.66.92-.37 1.41z"/><path id="l4nyb" d="M1387.94 114.55c.28-.49.12-1.12-.36-1.4a1.02 1.02 0 0 0-1.4.36l-3.51 6.09h2.37z"/><path id="l4nyc" d="M1396.04 134.56c0 .54-.42 1-.98 1a.98.98 0 0 1-.98-1v-5.54c0-.53.42-.99.98-.99.53 0 .98.43.98 1zm-3.15 0c0 .54-.42 1-.98 1a.98.98 0 0 1-.98-1v-5.54a1 1 0 0 1 .98-.99c.53 0 .98.43.98 1zm-3.16 0c0 .57-.46 1-.98 1a.98.98 0 0 1-.99-1v-5.54c0-.56.46-.99.99-.99a1 1 0 0 1 .98 1zm-3.15 0c0 .57-.46 1-.98 1a.98.98 0 0 1-.98-1v-5.54c0-.56.45-.99.98-.99.56 0 .98.46.98 1zm15.68-13.1h-23.53c-.95 0-1.73.78-1.73 1.75v1.94c0 .97.78 1.75 1.73 1.75h.55l1.67 9.16c.21 1.08 1.19 1.94 2.2 1.94H1397.5c1.01 0 1.99-.86 2.2-1.94l1.68-9.16h.89c.95 0 1.73-.79 1.73-1.76v-1.94c0-.96-.78-1.75-1.74-1.75z"/></defs><g><g transform="translate(-1377 -113)"><use xlink:href="#l4nya"/></g><g transform="translate(-1377 -113)"><use xlink:href="#l4nyb"/></g><g transform="translate(-1377 -113)"><use xlink:href="#l4nyc"/></g></g></svg>