<svg xmlns="http://www.w3.org/2000/svg" xmlns:xlink="http://www.w3.org/1999/xlink" width="60" height="46" viewBox="0 0 60 46"><defs><path id="l0wea" d="M497.12 2089.15a2.15 2.15 0 0 1-2.14-2.15v-22.41c0-1.12.87-2.05 1.97-2.13h31.5l.16-.01h7.38c1.18 0 2.15.96 2.15 2.14V2087c0 1.18-.97 2.15-2.15 2.15zm-13.26-29.55v-3.76h43.16v3.75h-29.9l-.28.01zm8.25 4.99v10.96h-6.1a2.15 2.15 0 0 1-2.15-2.14v-10.95h8.74c-.31.64-.49 1.37-.49 2.13zm-8.25-13.6c0-1.17.97-2.14 2.15-2.14h38.87c1.18 0 2.14.97 2.14 2.15v1.99h-43.16zm52.13 8.6h-6.1v-8.6a5 5 0 0 0-5.01-4.99H486a5 5 0 0 0-5.01 5v22.41a5 5 0 0 0 5 5h6.11v8.6a5 5 0 0 0 5.01 4.99H536a5 5 0 0 0 5.01-5v-22.41a5 5 0 0 0-5-5z"/><path id="l0web" d="M520.87 2079.82a4.04 4.04 0 1 1 0-8.07 4.04 4.04 0 0 1 0 8.07zm-6.13-.86a4.04 4.04 0 1 1 0-6.33 6.82 6.82 0 0 0 0 6.33zm6.13-10.05c-1.63 0-3.13.57-4.3 1.52a6.9 6.9 0 0 0-11.22 5.37 6.9 6.9 0 0 0 11.21 5.37 6.9 6.9 0 0 0 11.2-5.37 6.9 6.9 0 0 0-6.9-6.89z"/></defs><g><g transform="translate(-481 -2046)"><use xlink:href="#l0wea"/></g><g transform="translate(-481 -2046)"><use xlink:href="#l0web"/></g></g></svg>