<svg xmlns="http://www.w3.org/2000/svg" xmlns:xlink="http://www.w3.org/1999/xlink" width="21" height="17" viewBox="0 0 21 17"><defs><path id="1elea" d="M1306.12 3629.39c.48 0 .89-.15 1.23-.45l-5.95-5.77a94.55 94.55 0 0 0-1.5 1.03c-.27.18-.64.36-1.1.55-.46.18-.89.28-1.29.28h-.02c-.4 0-.83-.1-1.3-.28a6.74 6.74 0 0 1-1.1-.55 27.62 27.62 0 0 1-1.5-1.03l-5.94 5.77c.34.3.75.45 1.23.45z"/><path id="1eleb" d="M1288.18 3619.54a6.16 6.16 0 0 1-1.18-1v8.79l5.24-5.09-4.06-2.7z"/><path id="1elec" d="M1306.83 3619.54c-1.6 1.04-2.95 1.95-4.07 2.7l5.24 5.09v-8.78c-.34.36-.73.7-1.17.99z"/><path id="1eled" d="M1306.12 3613.39h-17.24c-.6 0-1.07.2-1.4.59-.32.4-.48.89-.48 1.48 0 .47.22 1 .64 1.55.43.56.9 1 1.38 1.31a503.19 503.19 0 0 0 4.29 2.9l1.18.8.17.12a164.12 164.12 0 0 1 .96.65c.17.11.37.24.6.37.25.14.47.24.68.3.21.08.4.11.59.11h.02c.18 0 .38-.03.59-.1.2-.07.43-.17.67-.3a12.55 12.55 0 0 0 1.57-1.03l.17-.13a1533.5 1533.5 0 0 1 5.49-3.69 5.49 5.49 0 0 0 1.43-1.4c.38-.54.57-1.11.57-1.71 0-.5-.19-.93-.56-1.29a1.84 1.84 0 0 0-1.32-.53z"/></defs><g><g transform="translate(-1287 -3613)"><use xlink:href="#1elea"/></g><g transform="translate(-1287 -3613)"><use xlink:href="#1eleb"/></g><g transform="translate(-1287 -3613)"><use xlink:href="#1elec"/></g><g transform="translate(-1287 -3613)"><use xlink:href="#1eled"/></g></g></svg>