<svg xmlns="http://www.w3.org/2000/svg" xmlns:xlink="http://www.w3.org/1999/xlink" width="18" height="22" viewBox="0 0 18 22"><defs><path id="gvfma" d="M1381.39 52.57v.73h-1.44v1.6h-.9v-3.98h2.44v.74h-1.54v.9zm-6.46 2.3v-3.9c.33-.05.76-.08 1.22-.08.75 0 1.24.14 1.63.43.41.3.67.8.67 1.5a2 2 0 0 1-.66 1.6c-.42.35-1.06.51-1.84.51-.47 0-.8-.03-1.02-.06zm-2.4 3.7c-.5 0-.91-.41-.91-.91V56.6h11.3c.52 0 .94-.42.94-.94v-5.73a.95.95 0 0 0-.95-.94h-11.29v-8.66c0-.5.4-.9.91-.9l8.34-.01v3.06c0 .9.73 1.63 1.63 1.63l3.02-.01.04 13.55c0 .5-.41.9-.91.9zm-1.04-7.6c.28-.04.67-.08 1.22-.08.55 0 .95.11 1.22.32.25.2.42.53.42.92s-.13.72-.37.94c-.3.3-.76.42-1.3.42-.11 0-.22 0-.3-.02v1.42h-.9zM1381.4 38h-8.88a2.35 2.35 0 0 0-2.35 2.34V49h-.23a.95.95 0 0 0-.95.94v5.73c0 .52.42.94.95.94h.23v1.05c0 1.29 1.05 2.34 2.35 2.34h12.12c1.3 0 2.35-1.05 2.35-2.34V43.54z"/></defs><g><g transform="translate(-1369 -38)"><use xlink:href="#gvfma"/></g></g></svg>