<svg xmlns="http://www.w3.org/2000/svg" xmlns:xlink="http://www.w3.org/1999/xlink" width="15" height="15" viewBox="0 0 15 15"><defs><path id="d1tda" d="M885.97 54.62c-.04-.12-.31-.31-.81-.56a24.84 24.84 0 0 0-1.25-.7 22.6 22.6 0 0 1-.84-.51 3 3 0 0 0-.38-.23.7.7 0 0 0-.3-.07c-.14 0-.32.1-.53.3-.22.2-.41.42-.59.66-.18.24-.37.46-.56.66-.2.2-.37.3-.5.3a.72.72 0 0 1-.23-.05 2.49 2.49 0 0 1-.68-.36 11.2 11.2 0 0 1-2.5-1.86 11.19 11.19 0 0 1-1.98-2.7 3.85 3.85 0 0 1-.24-.48.72.72 0 0 1-.05-.24c0-.12.1-.29.3-.49.2-.2.42-.38.66-.56.24-.18.46-.37.66-.59.2-.2.3-.39.3-.53a.7.7 0 0 0-.07-.3l-.23-.38-.19-.27a23.4 23.4 0 0 1-.7-1.24l-.32-.58c-.25-.5-.43-.77-.56-.8a.6.6 0 0 0-.23-.04 4.22 4.22 0 0 0-1.48.33c-.35.15-.73.58-1.13 1.3a4.13 4.13 0 0 0-.22 3.66 41.45 41.45 0 0 0 .41 1.11c.25.7.55 1.32.89 1.87.56.9 1.33 1.85 2.3 2.82.96.96 1.9 1.73 2.81 2.3.55.33 1.17.63 1.87.88a20.89 20.89 0 0 1 1.11.4 8.7 8.7 0 0 0 1.12.3 4.13 4.13 0 0 0 2.54-.5c.72-.41 1.15-.79 1.3-1.14a4.2 4.2 0 0 0 .3-1.7z"/></defs><g><g transform="translate(-871 -43)"><use xlink:href="#d1tda"/></g></g></svg>