<svg xmlns="http://www.w3.org/2000/svg" xmlns:xlink="http://www.w3.org/1999/xlink" width="55" height="55" viewBox="0 0 55 55"><defs><path id="7uzwa" d="M1134.69 2065.42h-18.74v-7.75h18.74zm-5.2 28.42h-13.54v-26.26h13.54zm-10.75-50.53c.3-.1.6-.14.92-.14.85 0 1.72.35 2.64 1.07 1.74 1.34 1.53 2.34 1.47 2.67-.35 1.72-3 3.8-7.45 5.88-1.88.88-3.75 1.6-5.11 2.07 1.31-4.01 4.08-10.48 7.53-11.55zm-5.1 50.53h-8.28v-36.17h8.28zm-10.96-41.05c-4.45-2.08-7.1-4.16-7.45-5.88-.07-.33-.27-1.33 1.46-2.67a4.37 4.37 0 0 1 2.65-1.07c.31 0 .62.05.92.14 3.44 1.07 6.21 7.53 7.53 11.55a60.54 60.54 0 0 1-5.11-2.07zm-13.17 41.05v-26.26h13.54v26.26zm-5.2-28.42v-7.75h18.74v7.75zm51.53-9.91h-20.25l1.74-.77c5.27-2.46 8.2-4.96 8.7-7.43.25-1.18.05-2.96-2.25-4.74-1.9-1.47-3.85-1.91-5.77-1.31-2.66.82-5.1 3.65-7.24 8.4-.5 1.12-.92 2.2-1.27 3.15-.35-.96-.77-2.03-1.27-3.14-2.15-4.76-4.58-7.59-7.24-8.41-1.92-.6-3.87-.16-5.77 1.31-2.3 1.78-2.5 3.56-2.26 4.74.5 2.47 3.44 4.97 8.71 7.43l1.74.77h-20.25c-.64 0-1.16.48-1.16 1.08v9.9c0 .6.52 1.1 1.16 1.1h4.04v27.33c0 .6.52 1.08 1.15 1.08h42.3c.63 0 1.15-.48 1.15-1.08v-27.34h4.04c.64 0 1.16-.48 1.16-1.08v-9.91c0-.6-.52-1.08-1.16-1.08z"/></defs><g><g transform="translate(-1082 -2041)"><use xlink:href="#7uzwa"/></g></g></svg>