<svg xmlns="http://www.w3.org/2000/svg" xmlns:xlink="http://www.w3.org/1999/xlink" width="46" height="60" viewBox="0 0 46 60"><defs><path id="9dzna" d="M1418.04 2080.76a20.73 20.73 0 0 1-7.25 2l-.02.01a19.96 19.96 0 0 1-1.07.06l-.21.01a20.37 20.37 0 0 1-.98 0h-.2a21.08 21.08 0 0 1-.56-.03l-.15-.01a21.03 21.03 0 0 1-.4-.03 20.72 20.72 0 0 1-18.9-20.7 20.76 20.76 0 0 1 20.7-20.76c11.41 0 20.7 9.31 20.7 20.77 0 8.2-4.76 15.3-11.66 18.68zm-9.04 12.47c-.1 0-.19.01-.28.04l-12.37 3.1v-15.02c.84.55 1.7 1.05 2.6 1.48l.25.12.12.06a22.76 22.76 0 0 0 8.26 2.1h.17l.22.02.33.01h.18a23.18 23.18 0 0 0 1.04 0h.18l.33-.01.22-.01.17-.01.67-.05h.02c2.07-.2 4.06-.66 5.94-1.37v3.77a1.15 1.15 0 1 0 2.3 0v-4.78c.79-.4 1.56-.84 2.3-1.33v15.02l-12.37-3.1c-.1-.03-.19-.04-.28-.04zm0-54.23a23.06 23.06 0 0 0-14.95 40.6v18.25a1.16 1.16 0 0 0 1.43 1.12l13.52-3.4 13.52 3.4a1.15 1.15 0 0 0 1.43-1.12v-18.25A23.06 23.06 0 0 0 1409 2039z"/><path id="9dznb" d="M1409 2078.27c-8.9 0-16.14-7.26-16.14-16.2 0-8.92 7.24-16.19 16.14-16.19s16.14 7.27 16.14 16.2-7.24 16.19-16.14 16.19zm0-34.7a18.49 18.49 0 0 0-18.44 18.5c0 10.2 8.27 18.5 18.44 18.5 10.17 0 18.44-8.3 18.44-18.5s-8.27-18.5-18.44-18.5z"/><path id="9dznc" d="M1412.77 2063.66c-.27.27-.4.65-.33 1.02l.69 4.02-3.6-1.9a1.15 1.15 0 0 0-1.07 0l-3.59 1.9.69-4.02c.06-.37-.06-.75-.33-1.02l-2.9-2.84 4-.58c.38-.06.7-.3.87-.63l1.8-3.65 1.8 3.65c.16.34.49.57.86.63l4.02.58zm6.47-4c-.13-.42-.5-.72-.93-.79l-5.72-.83-2.56-5.2a1.15 1.15 0 0 0-2.06 0l-2.56 5.2-5.72.83a1.15 1.15 0 0 0-.64 1.97l4.14 4.05-.98 5.72a1.16 1.16 0 0 0 1.67 1.22l5.12-2.7 5.12 2.7a1.15 1.15 0 0 0 1.2-.1c.36-.25.54-.69.47-1.12l-.98-5.72 4.14-4.05c.31-.3.43-.76.3-1.18z"/></defs><g><g transform="translate(-1386 -2039)"><use xlink:href="#9dzna"/></g><g transform="translate(-1386 -2039)"><use xlink:href="#9dznb"/></g><g transform="translate(-1386 -2039)"><use xlink:href="#9dznc"/></g></g></svg>