<svg xmlns="http://www.w3.org/2000/svg" xmlns:xlink="http://www.w3.org/1999/xlink" width="55" height="55" viewBox="0 0 55 55"><defs><path id="s2mea" d="M789.46 2081.86a1.32 1.32 0 0 0-1.87 0l-2.71 2.72a1.32 1.32 0 0 0 1.87 1.86l2.71-2.7c.52-.52.52-1.36 0-1.88z"/><path id="s2meb" d="M793.3 2085.7a1.32 1.32 0 0 0-1.87 0l-9.04 9.04a1.32 1.32 0 0 0 1.86 1.87l9.05-9.04c.51-.52.51-1.35 0-1.87z"/><path id="s2mec" d="M797.14 2089.54a1.32 1.32 0 0 0-1.87 0l-4.52 4.52a1.32 1.32 0 0 0 1.86 1.87l4.53-4.52c.51-.52.51-1.36 0-1.87z"/><path id="s2med" d="M820.18 2066.6a5.47 5.47 0 0 1-7.78 0 5.47 5.47 0 0 1 0-7.78 5.47 5.47 0 0 1 7.78 0 5.51 5.51 0 0 1 0 7.78zm1.87-9.65a8.1 8.1 0 0 0-5.76-2.38 8.1 8.1 0 0 0-5.76 2.38 8.1 8.1 0 0 0-2.39 5.76 8.1 8.1 0 0 0 2.39 5.76 8.1 8.1 0 0 0 5.76 2.39 8.15 8.15 0 0 0 5.76-13.9z"/><path id="s2mee" d="M833.6 2056.93l-11.53-11.53c3.81-.97 7.82-1 11.64-.11.9 3.82.86 7.83-.1 11.64zm-6.38 11.23l-17.6 15.12-13.9-13.9 10.68-12.43.03-.03 4.41-5.14a24.5 24.5 0 0 1 8.4-5.47l13.45 13.45a24.5 24.5 0 0 1-5.47 8.4zm-11.77 21.2c-.88.88-1.83 1.68-2.85 2.4l-1.57-6.2 10.5-9.03a21.18 21.18 0 0 1-6.08 12.83zm-11.64-3.57c-.84.3-1.78.16-2.49-.36l4.13-2.58 1.7 1.7zm-5.45-3.28l3.37-3.37 1.8 1.8-4.15 2.59zm-2.89-2.9l2.6-4.14 1.8 1.8-3.38 3.37zm-2.26-4.42l1.23-3.34 1.7 1.7-2.57 4.13a2.65 2.65 0 0 1-.36-2.49zm-5.96-8.8a21.18 21.18 0 0 1 15.22-8.92l-9.02 10.5zm48.83-22.53a1.32 1.32 0 0 0-.94-.94 27.26 27.26 0 0 0-16.09.64 27.14 27.14 0 0 0-10.08 6.36l-.02.02-.04.04-.03.04-4.05 4.7a23.82 23.82 0 0 0-20.82 11.84 1.32 1.32 0 0 0 .82 1.95l7.34 1.87-1.44 3.9a5.3 5.3 0 0 0 1.23 5.56l7.2 7.2a5.3 5.3 0 0 0 5.56 1.23l3.9-1.44 1.87 7.34a1.32 1.32 0 0 0 1.95.82 23.8 23.8 0 0 0 11.84-20.82l4.7-4.05c.02 0 .03-.02.04-.03l.04-.04.02-.02a27.14 27.14 0 0 0 7-26.17z"/></defs><g><g transform="translate(-782 -2042)"><use xlink:href="#s2mea"/></g><g transform="translate(-782 -2042)"><use xlink:href="#s2meb"/></g><g transform="translate(-782 -2042)"><use xlink:href="#s2mec"/></g><g transform="translate(-782 -2042)"><use xlink:href="#s2med"/></g><g transform="translate(-782 -2042)"><use xlink:href="#s2mee"/></g></g></svg>