<svg xmlns="http://www.w3.org/2000/svg" xmlns:xlink="http://www.w3.org/1999/xlink" width="34" height="29" viewBox="0 0 34 29"><defs><path id="zxqna" d="M1517.91 233.12h-.05 22.75l-7.15 7.1a1.84 1.84 0 0 0 0 2.62l1.11 1.1a1.85 1.85 0 0 0 2.63 0l12.26-12.15c.35-.35.54-.82.54-1.3 0-.5-.2-.97-.54-1.32l-12.26-12.15a1.85 1.85 0 0 0-1.32-.54c-.5 0-.96.19-1.31.54l-1.11 1.1a1.82 1.82 0 0 0 0 2.58l7.23 7.15h-22.8c-1.03 0-1.89.87-1.89 1.89v1.56c0 1.02.89 1.82 1.91 1.82z"/></defs><g><g transform="translate(-1516 -216)"><use fill="#fff" xlink:href="#zxqna"/></g></g></svg>